<svg xmlns="http://www.w3.org/2000/svg" width="1200" height="360" viewBox="0 0 1200 360">
  <defs>
    <style>
      .cls-1 {
        fill: #00418c;
      }

      .cls-1, .cls-2, .cls-3, .cls-4, .cls-5 {
        fill-rule: evenodd;
      }

      .cls-2 {
        fill: #3e82f1;
      }

      .cls-3 {
        fill: #0267db;
        opacity: 0.96;
      }

      .cls-4 {
        fill: #fff;
      }

      .cls-4, .cls-5 {
        opacity: 0.8;
      }

      .cls-5 {
        fill: #b7eebc;
      }
    </style>
  </defs>
  <path id="Cardi" class="cls-1" d="M563.149,255.512a25.776,25.776,0,0,0-.978-5.463,4.913,4.913,0,0,0-1.631-2.609,4.652,4.652,0,0,0-2.608-.652q-2.121,0-5.952,2.609t-9.783,5.87a82.838,82.838,0,0,1-14.267,5.951,64.364,64.364,0,0,1-19.73,2.691,56.518,56.518,0,0,1-22.582-4.321A44.2,44.2,0,0,1,468.5,246.462q-7.092-8.8-10.924-22.42t-3.832-32.2a119.133,119.133,0,0,1,3.587-30.491,68.805,68.805,0,0,1,10.517-23.072,46.418,46.418,0,0,1,39.214-19.811,60.273,60.273,0,0,1,19.648,2.853,79.21,79.21,0,0,1,14.186,6.359,102.155,102.155,0,0,1,9.7,6.359q3.748,2.855,6.2,2.854a3.893,3.893,0,0,0,2.609-.979,7.647,7.647,0,0,0,1.957-3.1,21.557,21.557,0,0,0,1.141-5.543q0.326-3.425.326-8.316,0-4.563-.244-7.664a41.743,41.743,0,0,0-.734-5.38,13.684,13.684,0,0,0-1.305-3.75,18.346,18.346,0,0,0-3.016-3.669,37.469,37.469,0,0,0-7.745-5.3A75.847,75.847,0,0,0,537.3,87.73,103.8,103.8,0,0,0,522.223,83.9a95.6,95.6,0,0,0-16.957-1.467,104.312,104.312,0,0,0-39.7,7.337,83.915,83.915,0,0,0-30.9,21.522q-12.884,14.187-20.056,35.057t-7.174,47.774q0,26.415,6.522,46.307t18.751,33.181a77.246,77.246,0,0,0,29.676,19.974q17.445,6.684,39.132,6.686a111.749,111.749,0,0,0,20.626-1.794,109.208,109.208,0,0,0,16.958-4.484,81.684,81.684,0,0,0,12.555-5.625,33.2,33.2,0,0,0,6.93-4.81,17.242,17.242,0,0,0,2.609-3.343,13.9,13.9,0,0,0,1.3-3.506,33.5,33.5,0,0,0,.734-4.891q0.245-2.851.244-6.93Q563.475,259.017,563.149,255.512Zm152.618-61.553q0-15-3.588-25.925a39.939,39.939,0,0,0-11.413-17.854q-7.827-6.928-19.974-10.273t-29.268-3.342a110.545,110.545,0,0,0-18.67,1.549,123.869,123.869,0,0,0-16.713,3.994,93.977,93.977,0,0,0-13.37,5.3,30.519,30.519,0,0,0-7.99,5.217,12.294,12.294,0,0,0-3.1,5.3,30.993,30.993,0,0,0-.815,7.989,44.055,44.055,0,0,0,.489,6.848,22.472,22.472,0,0,0,1.386,5.218,8.274,8.274,0,0,0,2.283,3.261,4.847,4.847,0,0,0,3.18,1.141q2.606,0,6.766-2.282t10.354-5.055a105.573,105.573,0,0,1,14.267-5.055,67.515,67.515,0,0,1,18.344-2.282,45.3,45.3,0,0,1,13.125,1.63,18.863,18.863,0,0,1,8.479,5.055,19.991,19.991,0,0,1,4.566,8.56,46.347,46.347,0,0,1,1.386,11.985v8.8H661.307a175.382,175.382,0,0,0-34.078,2.935q-14.675,2.935-24.539,9.05a40.418,40.418,0,0,0-14.838,15.49q-4.976,9.378-4.973,22.093a50.2,50.2,0,0,0,3.913,20.545A40.333,40.333,0,0,0,597.8,288.611a47.859,47.859,0,0,0,16.794,8.968,71.406,71.406,0,0,0,21.279,3.017,59.454,59.454,0,0,0,25.517-5.381,66.107,66.107,0,0,0,20.464-15v11.577a4.681,4.681,0,0,0,1.386,3.587,9.179,9.179,0,0,0,4.728,1.875,70.68,70.68,0,0,0,10.68.571A69.691,69.691,0,0,0,709,297.253a11.189,11.189,0,0,0,5.136-1.875,4.346,4.346,0,0,0,1.631-3.587V193.959Zm-40.274,60.33a65.991,65.991,0,0,1-14.757,12.881,30.075,30.075,0,0,1-15.9,4.4q-10.274,0-16.061-5.217t-5.788-14.349a21.376,21.376,0,0,1,2.038-9.539,18.126,18.126,0,0,1,6.44-7.092,32.5,32.5,0,0,1,11.414-4.4,84.113,84.113,0,0,1,16.957-1.467h15.654v24.784ZM849.959,150.1a40.435,40.435,0,0,0-.489-5.136,14.392,14.392,0,0,0-.734-2.691,5.109,5.109,0,0,0-1.3-1.793,9.05,9.05,0,0,0-2.854-1.549,33.925,33.925,0,0,0-4.565-1.305,44.628,44.628,0,0,0-5.055-.815q-2.445-.245-4.565-0.244a35.111,35.111,0,0,0-9.131,1.223,30.281,30.281,0,0,0-9.131,4.32,60.906,60.906,0,0,0-9.62,8.4,115.853,115.853,0,0,0-10.762,13.452v-18.1a5.038,5.038,0,0,0-.815-2.854,6.008,6.008,0,0,0-2.691-2.038,19.658,19.658,0,0,0-5.3-1.223,75.813,75.813,0,0,0-8.642-.407,71.811,71.811,0,0,0-8.4.407,23.468,23.468,0,0,0-5.462,1.223,5.979,5.979,0,0,0-2.935,2.038,5.015,5.015,0,0,0-.815,2.854V291.3a4.431,4.431,0,0,0,.978,2.853,7.179,7.179,0,0,0,3.343,2.038,28.976,28.976,0,0,0,6.277,1.223q3.913,0.4,9.946.408t9.947-.408a29.026,29.026,0,0,0,6.277-1.223,7.2,7.2,0,0,0,3.343-2.038,4.431,4.431,0,0,0,.978-2.853V200.644a126.951,126.951,0,0,1,8.56-12.066,52.662,52.662,0,0,1,7.664-7.826,28.91,28.91,0,0,1,7.093-4.321,18.165,18.165,0,0,1,6.848-1.386,23.721,23.721,0,0,1,5.381.571q2.445,0.573,4.483,1.223t3.669,1.223a8.934,8.934,0,0,0,2.935.57,4.281,4.281,0,0,0,2.69-.815,5.751,5.751,0,0,0,1.713-2.935,29.793,29.793,0,0,0,.978-5.87q0.324-3.748.326-9.62T849.959,150.1Zm159.3-72.722a4.73,4.73,0,0,0-.98-2.935,7.308,7.308,0,0,0-3.26-2.2,26.565,26.565,0,0,0-6.194-1.386,101.372,101.372,0,0,0-19.892,0,28.043,28.043,0,0,0-6.278,1.386,6.721,6.721,0,0,0-3.261,2.2,5.06,5.06,0,0,0-.9,2.935v78.755a78.889,78.889,0,0,0-19.729-14.593,48.9,48.9,0,0,0-22.175-4.973q-15.494,0-27.393,5.87a53.857,53.857,0,0,0-19.893,16.794,78.963,78.963,0,0,0-12.147,26.415A134.73,134.73,0,0,0,863,220.537a140.467,140.467,0,0,0,3.261,30.735,75.3,75.3,0,0,0,10.517,25.518,53.674,53.674,0,0,0,18.751,17.365q11.5,6.44,28.127,6.441a56.309,56.309,0,0,0,27.311-6.686,93.462,93.462,0,0,0,23.561-18.751V291.3a4.95,4.95,0,0,0,.9,3.016,6.506,6.506,0,0,0,2.935,2.038,19.916,19.916,0,0,0,5.3,1.142q3.26,0.324,8.479.326,4.892,0,8.229-.326a18.954,18.954,0,0,0,5.3-1.142,5.986,5.986,0,0,0,2.78-2.038,5.339,5.339,0,0,0,.81-3.016V77.377ZM968.5,242.386q-5.22,6.524-9.62,11.006a54.669,54.669,0,0,1-8.56,7.256,31.352,31.352,0,0,1-8.153,3.995,28,28,0,0,1-8.234,1.222q-8.48,0-14.023-4.076a29.211,29.211,0,0,1-8.886-10.843,55.606,55.606,0,0,1-4.81-15.408,106.011,106.011,0,0,1-1.467-17.773,82.653,82.653,0,0,1,1.712-16.876,56.844,56.844,0,0,1,5.217-14.919,29.168,29.168,0,0,1,9.294-10.68,23.649,23.649,0,0,1,13.778-4,28.287,28.287,0,0,1,16.876,5.87q8.072,5.87,16.876,16.957v48.264Zm123.1-96.2a4.4,4.4,0,0,0-.98-2.854,7.662,7.662,0,0,0-3.34-2.119,28.079,28.079,0,0,0-6.28-1.386,101.372,101.372,0,0,0-19.89,0,28.079,28.079,0,0,0-6.28,1.386,7.724,7.724,0,0,0-3.34,2.119,4.452,4.452,0,0,0-.98,2.854V291.3a4.444,4.444,0,0,0,.98,2.853,7.193,7.193,0,0,0,3.34,2.038,29.071,29.071,0,0,0,6.28,1.223q3.915,0.4,9.95.408c4.02,0,7.34-.138,9.94-0.408a29.071,29.071,0,0,0,6.28-1.223,7.14,7.14,0,0,0,3.34-2.038,4.388,4.388,0,0,0,.98-2.853V146.185Zm-1.79-66.118q-4.89-4.647-18.59-4.647-13.86,0-18.83,4.81t-4.97,17.2q0,11.9,4.81,16.468t18.67,4.566q13.695,0,18.75-4.729,5.04-4.726,5.05-17.12Q1094.7,84.716,1089.81,80.067Z"/>
  <path id="i" class="cls-2" d="M1173.19,145.185a4.452,4.452,0,0,0-.98-2.854,7.724,7.724,0,0,0-3.34-2.119,28.079,28.079,0,0,0-6.28-1.386,101.372,101.372,0,0,0-19.89,0,27.949,27.949,0,0,0-6.28,1.386,7.662,7.662,0,0,0-3.34,2.119,4.4,4.4,0,0,0-.98,2.854V290.3a4.388,4.388,0,0,0,.98,2.853,7.14,7.14,0,0,0,3.34,2.038,28.945,28.945,0,0,0,6.28,1.223c2.6,0.27,5.92.408,9.94,0.408s7.34-.138,9.95-0.408a29.071,29.071,0,0,0,6.28-1.223,7.193,7.193,0,0,0,3.34-2.038,4.444,4.444,0,0,0,.98-2.853V145.185Zm-1.8-66.118q-4.89-4.647-18.58-4.647-13.875,0-18.84,4.81t-4.97,17.2q0,11.9,4.81,16.468t18.67,4.566q13.695,0,18.75-4.729t5.05-17.12Q1176.28,83.716,1171.39,79.067Z"/>
  <path id="Lower_Card" data-name="Lower Card" class="cls-2" d="M74.363,202.5L229.57,45.675a12,12,0,0,1,16.97-.088l95.641,94.656a12,12,0,0,1,.088,16.971L187.063,314.034a12,12,0,0,1-16.971.088L74.451,219.466A12,12,0,0,1,74.363,202.5Z"/>
  <path id="Upper_Card" data-name="Upper Card" class="cls-3" d="M18.268,202.785L173.474,45.965a12,12,0,0,1,16.971-.088l95.641,94.657a12,12,0,0,1,.087,16.97L130.967,314.325a12,12,0,0,1-16.97.087L18.356,219.756A12,12,0,0,1,18.268,202.785Z"/>
  <path id="Rounded_Rectangle_1" data-name="Rounded Rectangle 1" class="cls-4" d="M113.481,203.556l62.105-62.479a11.085,11.085,0,1,1,15.723,15.629l-62.1,62.479A11.085,11.085,0,0,1,113.481,203.556Z"/>
  <path id="Rounded_Rectangle_1_copy" data-name="Rounded Rectangle 1 copy" class="cls-5" d="M169.235,200.022l62.1-62.479a11.085,11.085,0,1,1,15.723,15.629l-62.1,62.479A11.085,11.085,0,0,1,169.235,200.022Z"/>
</svg>
